<svg width="224" height="55" viewBox="0 0 224 55" fill="none" xmlns="http://www.w3.org/2000/svg">
<path fill-rule="evenodd" clip-rule="evenodd" d="M0 0H23V25H0V0Z" fill="white"/>
<path fill-rule="evenodd" clip-rule="evenodd" d="M29 0H52V25H29V0Z" fill="#737373"/>
<path fill-rule="evenodd" clip-rule="evenodd" d="M29 30H52V55H29V30Z" fill="white"/>
<path fill-rule="evenodd" clip-rule="evenodd" d="M62 48.9714V21.0286C62 20.4714 62.4788 20 63.0446 20H71.6625C76.4503 20 80.324 23.8571 80.324 28.5714C80.324 33.2857 76.4503 37.1 71.6625 37.1L64.1327 37.1857V48.9714C64.1327 49.5286 63.6539 50 63.0446 50C62.4788 50 62 49.5286 62 48.9714ZM64.1327 35.0857H71.6625C75.2751 35.0429 78.2348 32.1286 78.2348 28.5714C78.2348 25.0143 75.2751 22.1 71.6625 22.1H64.1327V35.0857ZM85.2423 39.5C85.2423 33.8 89.7689 29 95.3401 29C100.955 29 105.438 33.8 105.438 39.5C105.438 45.2 100.955 50 95.3401 50C89.7689 50 85.2423 45.2 85.2423 39.5ZM87.3315 39.5C87.3315 44.1714 90.9876 47.9429 95.3401 47.9429C99.6926 47.9429 103.349 44.1714 103.349 39.5C103.349 34.8286 99.6926 31.0143 95.3401 31.0143C90.9876 31.0143 87.3315 34.8286 87.3315 39.5ZM112.097 47C111.662 46.6143 111.618 46.0571 111.967 45.6286C112.315 45.2 112.968 45.1143 113.447 45.5C114.926 46.5714 117.277 47.9429 119.975 47.9429C121.629 47.9429 123.066 47.4286 124.023 46.6571C125.068 45.9714 125.634 45.0286 125.634 44.0857C125.59 43.1 125.198 42.4143 124.11 41.5143C123.196 40.8286 121.673 40.3143 119.584 39.9714L119.497 39.9286C117.581 39.5857 115.884 39.1571 114.665 38.3C113.316 37.5286 112.358 36.1571 112.358 34.5286C112.358 32.8571 113.316 31.4 114.665 30.4143C115.927 29.5571 117.712 29 119.888 29C122.63 29 124.589 30.2429 126.243 31.2714C126.722 31.6143 126.852 32.2571 126.548 32.7286C126.243 33.2 125.59 33.3286 125.111 33.0286C123.544 32 121.977 30.9286 119.888 30.9286C118.147 30.9286 116.754 31.4 115.84 32.1286C114.97 32.8143 114.491 33.6714 114.491 34.5286C114.491 35.3857 114.883 35.9857 115.71 36.6286C116.667 37.2714 118.104 37.7857 120.062 38.0857H120.149C122.195 38.3857 123.849 38.9857 125.329 39.8C126.722 40.7 127.723 42.3286 127.723 44.0857C127.723 45.8429 126.722 47.2571 125.285 48.3286C123.805 49.4 122.064 50 119.975 50C116.537 49.9571 113.838 48.3714 112.097 47ZM134.904 48.9714V30.0286C134.904 29.4286 135.383 29 135.949 29C136.558 29 137.037 29.4286 137.037 30.0286V48.9714C137.037 49.5286 136.558 50 135.949 50C135.383 50 134.904 49.5286 134.904 48.9714ZM134.904 24.1571V23.1714C134.904 22.6143 135.383 22.1429 135.949 22.1429C136.558 22.1429 137.037 22.6143 137.037 23.1714V24.1571C137.037 24.7571 136.558 25.2714 135.949 25.2714C135.383 25.2714 134.904 24.7571 134.904 24.1571ZM153.49 29C154.012 29 154.534 29.5143 154.534 30.0286C154.534 30.5429 154.012 31.0571 153.49 31.0571H150.747V46.3571C150.747 47.3857 151.792 47.9 152.314 47.9C152.837 47.9 153.402 48.4571 153.402 48.9714C153.402 49.4857 152.837 50 152.314 50C150.182 50 148.571 48.4571 148.571 46.3571V31.0571H145.916C144.872 31.0571 144.872 30.5429 144.872 30.0286C144.872 29.5143 144.872 29 145.916 29H148.571V21.2C148.571 20.6857 149.093 20.1714 149.616 20.1714C150.182 20.1714 150.747 20.6857 150.747 21.2V29H153.49ZM161.455 48.9714V30.0714C161.455 29.4714 161.933 29.0429 162.543 29.0429C163.065 29.0429 163.544 29.4714 163.544 30.0714V34.7C163.631 34.5286 163.718 34.3571 163.848 34.1857C165.459 31.7 168.288 29.0429 172.379 29.0429C172.945 29.0429 173.424 29.4714 173.424 30.0714C173.424 30.6286 172.945 31.1 172.379 31.1C169.594 31.1 167.679 32.6429 166.199 34.5286C164.762 36.4143 163.936 38.5571 163.631 39.4143C163.544 39.5857 163.544 39.6714 163.544 39.7571V48.9714C163.544 49.5714 163.065 50 162.543 50C161.933 50 161.455 49.5714 161.455 48.9714ZM178.473 39.5C178.473 33.8 182.999 29 188.571 29C194.185 29 198.668 33.8 198.668 39.5C198.668 45.2 194.185 50 188.571 50C182.999 50 178.473 45.2 178.473 39.5ZM180.562 39.5C180.562 44.1714 184.218 47.9429 188.571 47.9429C192.923 47.9429 196.579 44.1714 196.579 39.5C196.579 34.8286 192.923 31.0143 188.571 31.0143C184.218 31.0143 180.562 34.8286 180.562 39.5ZM221.911 48.9714V37.5714C221.911 34.0143 218.995 31.1 215.339 31.1C211.726 31.1 208.81 34.0143 208.723 37.5714V49.1429C208.679 49.3143 208.636 49.4857 208.505 49.6143C208.331 49.8714 208.026 50 207.722 50H207.46C207.156 49.9143 206.895 49.7 206.764 49.4429C206.721 49.4 206.721 49.3571 206.721 49.3143C206.721 49.2714 206.677 49.2286 206.677 49.2286V30.0714C206.677 29.5143 207.112 29.0429 207.722 29.0429C208.287 29.0429 208.723 29.5143 208.723 30.0714V32.0857C210.29 30.2429 212.684 29.0429 215.339 29.0429C220.126 29.0429 224 32.9 224 37.5714V48.9714C224 49.5714 223.521 50 222.955 50C222.39 50 221.911 49.5714 221.911 48.9714Z" fill="white"/>
</svg>
